<svg width="13" height="12" viewBox="0 0 13 12" fill="none" xmlns="http://www.w3.org/2000/svg">
<path d="M5.69531 0.786133C5.42188 1.05957 5.44922 1.46973 5.69531 1.74316L9.00391 4.86035H1.15625C0.773438 4.86035 0.5 5.16113 0.5 5.5166V6.3916C0.5 6.77441 0.773438 7.04785 1.15625 7.04785H9.00391L5.69531 10.1924C5.44922 10.4658 5.44922 10.876 5.69531 11.1494L6.29688 11.751C6.57031 11.9971 6.98047 11.9971 7.22656 11.751L12.5586 6.41895C12.8047 6.17285 12.8047 5.7627 12.5586 5.48926L7.22656 0.18457C6.98047 -0.0615234 6.57031 -0.0615234 6.29688 0.18457L5.69531 0.786133Z" fill="#212121"/>
</svg>
